<?xml version="1.0" encoding="UTF-8"?>
<svg id="Capa_1" data-name="Capa 1" xmlns="http://www.w3.org/2000/svg" viewBox="0 0 48.86 48.86">
  <defs>
    <style>
      .cls-1 {
        fill: #636363;
      }
    </style>
  </defs>
  <path class="cls-1" d="M19.95,0l2.4.32c11.65,2.11,18.56,14.21,14.39,25.41-.65,1.73-1.59,3.43-2.76,4.87l14.02,14.03c.43.47.69.96.86,1.58v.57c-.25,1.1-1,1.85-2.1,2.1h-.57c-.61-.16-1.11-.43-1.58-.86l-14.02-14.03c-1.6,1.3-3.53,2.35-5.49,3-11.07,3.69-22.71-3.25-24.77-14.63L.01,19.95c.03-.63-.04-1.28,0-1.91C.6,8.26,8.38.56,18.14,0h1.81ZM17.64,4.8C7.26,5.62,1.41,17.54,6.84,26.43c5.05,8.27,16.95,9.21,23.13,1.68,8.1-9.87.37-24.3-12.33-23.3Z"/>
</svg>