<?xml version="1.0" encoding="UTF-8"?>
<svg id="Capa_1" xmlns="http://www.w3.org/2000/svg" version="1.1" viewBox="0 0 48.9 48.9">
  <!-- Generator: Adobe Illustrator 29.0.0, SVG Export Plug-In . SVG Version: 2.1.0 Build 186)  -->
  <defs>
    <style>
      .st0 {
        fill: #f3ff00;
      }
    </style>
  </defs>
  <path class="st0" d="M20.3,2.1l2.2.3c10.6,1.9,16.9,13,13.1,23.2-.6,1.6-1.5,3.1-2.5,4.4l12.8,12.8c.4.4.6.9.8,1.4v.5c-.2,1-.9,1.7-1.9,1.9h-.5c-.6-.1-1-.4-1.4-.8l-12.8-12.8c-1.5,1.2-3.2,2.1-5,2.7-10.1,3.4-20.7-3-22.6-13.4l-.3-2.2c0-.6,0-1.2,0-1.7C2.7,9.7,9.8,2.6,18.7,2.1h1.7ZM18.2,6.5c-9.5.7-14.8,11.6-9.9,19.7,4.6,7.6,15.5,8.4,21.1,1.5,7.4-9,.3-22.2-11.3-21.3h0Z"/>
</svg>